<?xml version="1.0" encoding="UTF-8" standalone="no"?><svg xmlns="http://www.w3.org/2000/svg" xmlns:xlink="http://www.w3.org/1999/xlink" contentScriptType="application/ecmascript" contentStyleType="text/css" height="1846px" preserveAspectRatio="none" style="width:3683px;height:1846px;" version="1.1" viewBox="0 0 3683 1846" width="3683px" zoomAndPan="magnify"><defs/><g><line style="stroke: #383838; stroke-width: 1.0; stroke-dasharray: 5.0,5.0;" x1="97" x2="97" y1="34.2969" y2="1805.7344"/><line style="stroke: #383838; stroke-width: 1.0; stroke-dasharray: 5.0,5.0;" x1="336" x2="336" y1="34.2969" y2="1805.7344"/><line style="stroke: #383838; stroke-width: 1.0; stroke-dasharray: 5.0,5.0;" x1="624" x2="624" y1="34.2969" y2="1805.7344"/><line style="stroke: #383838; stroke-width: 1.0; stroke-dasharray: 5.0,5.0;" x1="869" x2="869" y1="34.2969" y2="1805.7344"/><line style="stroke: #383838; stroke-width: 1.0; stroke-dasharray: 5.0,5.0;" x1="1098" x2="1098" y1="34.2969" y2="1805.7344"/><line style="stroke: #383838; stroke-width: 1.0; stroke-dasharray: 5.0,5.0;" x1="1365" x2="1365" y1="34.2969" y2="1805.7344"/><line style="stroke: #383838; stroke-width: 1.0; stroke-dasharray: 5.0,5.0;" x1="1629" x2="1629" y1="34.2969" y2="1805.7344"/><line style="stroke: #383838; stroke-width: 1.0; stroke-dasharray: 5.0,5.0;" x1="1847" x2="1847" y1="34.2969" y2="1805.7344"/><line style="stroke: #383838; stroke-width: 1.0; stroke-dasharray: 5.0,5.0;" x1="2057" x2="2057" y1="34.2969" y2="1805.7344"/><line style="stroke: #383838; stroke-width: 1.0; stroke-dasharray: 5.0,5.0;" x1="2288" x2="2288" y1="34.2969" y2="1805.7344"/><line style="stroke: #383838; stroke-width: 1.0; stroke-dasharray: 5.0,5.0;" x1="2519" x2="2519" y1="34.2969" y2="1805.7344"/><line style="stroke: #383838; stroke-width: 1.0; stroke-dasharray: 5.0,5.0;" x1="2750" x2="2750" y1="34.2969" y2="1805.7344"/><line style="stroke: #383838; stroke-width: 1.0; stroke-dasharray: 5.0,5.0;" x1="2975" x2="2975" y1="34.2969" y2="1805.7344"/><line style="stroke: #383838; stroke-width: 1.0; stroke-dasharray: 5.0,5.0;" x1="3197" x2="3197" y1="34.2969" y2="1805.7344"/><line style="stroke: #383838; stroke-width: 1.0; stroke-dasharray: 5.0,5.0;" x1="3401" x2="3401" y1="34.2969" y2="1805.7344"/><line style="stroke: #383838; stroke-width: 1.0; stroke-dasharray: 5.0,5.0;" x1="3585" x2="3585" y1="34.2969" y2="1805.7344"/><rect fill="#F8F8F8" height="30.2969" style="stroke: #383838; stroke-width: 1.5;" width="179" x="8" y="3"/><text fill="#000000" font-family="DejaVu Sans" font-size="14" lengthAdjust="spacingAndGlyphs" text-decoration="underline" textLength="165" x="15" y="22.9951">instMain_env_train:Train</text><line style="stroke: #000000; stroke-width: 1.0;" x1="15" x2="180" y1="24.9951" y2="24.9951"/><rect fill="#F8F8F8" height="30.2969" style="stroke: #383838; stroke-width: 1.5;" width="179" x="8" y="1804.7344"/><text fill="#000000" font-family="DejaVu Sans" font-size="14" lengthAdjust="spacingAndGlyphs" text-decoration="underline" textLength="165" x="15" y="1824.7295">instMain_env_train:Train</text><line style="stroke: #000000; stroke-width: 1.0;" x1="15" x2="180" y1="1826.7295" y2="1826.7295"/><rect fill="#F8F8F8" height="30.2969" style="stroke: #383838; stroke-width: 1.5;" width="278" x="197" y="3"/><text fill="#000000" font-family="DejaVu Sans" font-size="14" lengthAdjust="spacingAndGlyphs" text-decoration="underline" textLength="264" x="204" y="22.9951">instMain_sys_tcEntrance0:EntranceTC</text><line style="stroke: #000000; stroke-width: 1.0;" x1="204" x2="468" y1="24.9951" y2="24.9951"/><rect fill="#F8F8F8" height="30.2969" style="stroke: #383838; stroke-width: 1.5;" width="278" x="197" y="1804.7344"/><text fill="#000000" font-family="DejaVu Sans" font-size="14" lengthAdjust="spacingAndGlyphs" text-decoration="underline" textLength="264" x="204" y="1824.7295">instMain_sys_tcEntrance0:EntranceTC</text><line style="stroke: #000000; stroke-width: 1.0;" x1="204" x2="468" y1="1826.7295" y2="1826.7295"/><rect fill="#F8F8F8" height="30.2969" style="stroke: #383838; stroke-width: 1.5;" width="278" x="485" y="3"/><text fill="#000000" font-family="DejaVu Sans" font-size="14" lengthAdjust="spacingAndGlyphs" text-decoration="underline" textLength="264" x="492" y="22.9951">instMain_sys_tcEntrance1:EntranceTC</text><line style="stroke: #000000; stroke-width: 1.0;" x1="492" x2="756" y1="24.9951" y2="24.9951"/><rect fill="#F8F8F8" height="30.2969" style="stroke: #383838; stroke-width: 1.5;" width="278" x="485" y="1804.7344"/><text fill="#000000" font-family="DejaVu Sans" font-size="14" lengthAdjust="spacingAndGlyphs" text-decoration="underline" textLength="264" x="492" y="1824.7295">instMain_sys_tcEntrance1:EntranceTC</text><line style="stroke: #000000; stroke-width: 1.0;" x1="492" x2="756" y1="1826.7295" y2="1826.7295"/><rect fill="#F8F8F8" height="30.2969" style="stroke: #383838; stroke-width: 1.5;" width="193" x="773" y="3"/><text fill="#000000" font-family="DejaVu Sans" font-size="14" lengthAdjust="spacingAndGlyphs" text-decoration="underline" textLength="179" x="780" y="22.9951">instMain_sys_tcExit:ExitTC</text><line style="stroke: #000000; stroke-width: 1.0;" x1="780" x2="959" y1="24.9951" y2="24.9951"/><rect fill="#F8F8F8" height="30.2969" style="stroke: #383838; stroke-width: 1.5;" width="193" x="773" y="1804.7344"/><text fill="#000000" font-family="DejaVu Sans" font-size="14" lengthAdjust="spacingAndGlyphs" text-decoration="underline" textLength="179" x="780" y="1824.7295">instMain_sys_tcExit:ExitTC</text><line style="stroke: #000000; stroke-width: 1.0;" x1="780" x2="959" y1="1826.7295" y2="1826.7295"/><rect fill="#F8F8F8" height="30.2969" style="stroke: #383838; stroke-width: 1.5;" width="245" x="976" y="3"/><text fill="#000000" font-family="DejaVu Sans" font-size="14" lengthAdjust="spacingAndGlyphs" text-decoration="underline" textLength="231" x="983" y="22.9951">instMain_sys_controller:Controller</text><line style="stroke: #000000; stroke-width: 1.0;" x1="983" x2="1214" y1="24.9951" y2="24.9951"/><rect fill="#F8F8F8" height="30.2969" style="stroke: #383838; stroke-width: 1.5;" width="245" x="976" y="1804.7344"/><text fill="#000000" font-family="DejaVu Sans" font-size="14" lengthAdjust="spacingAndGlyphs" text-decoration="underline" textLength="231" x="983" y="1824.7295">instMain_sys_controller:Controller</text><line style="stroke: #000000; stroke-width: 1.0;" x1="983" x2="1214" y1="1826.7295" y2="1826.7295"/><rect fill="#F8F8F8" height="30.2969" style="stroke: #383838; stroke-width: 1.5;" width="268" x="1231" y="3"/><text fill="#000000" font-family="DejaVu Sans" font-size="14" lengthAdjust="spacingAndGlyphs" text-decoration="underline" textLength="254" x="1238" y="22.9951">instMain_sys_railwaySign:RailwaySign</text><line style="stroke: #000000; stroke-width: 1.0;" x1="1238" x2="1492" y1="24.9951" y2="24.9951"/><rect fill="#F8F8F8" height="30.2969" style="stroke: #383838; stroke-width: 1.5;" width="268" x="1231" y="1804.7344"/><text fill="#000000" font-family="DejaVu Sans" font-size="14" lengthAdjust="spacingAndGlyphs" text-decoration="underline" textLength="254" x="1238" y="1824.7295">instMain_sys_railwaySign:RailwaySign</text><line style="stroke: #000000; stroke-width: 1.0;" x1="1238" x2="1492" y1="1826.7295" y2="1826.7295"/><rect fill="#F8F8F8" height="30.2969" style="stroke: #383838; stroke-width: 1.5;" width="240" x="1509" y="3"/><text fill="#000000" font-family="DejaVu Sans" font-size="14" lengthAdjust="spacingAndGlyphs" text-decoration="underline" textLength="226" x="1516" y="22.9951">instMain_sys_roadSign:RoadSign</text><line style="stroke: #000000; stroke-width: 1.0;" x1="1516" x2="1742" y1="24.9951" y2="24.9951"/><rect fill="#F8F8F8" height="30.2969" style="stroke: #383838; stroke-width: 1.5;" width="240" x="1509" y="1804.7344"/><text fill="#000000" font-family="DejaVu Sans" font-size="14" lengthAdjust="spacingAndGlyphs" text-decoration="underline" textLength="226" x="1516" y="1824.7295">instMain_sys_roadSign:RoadSign</text><line style="stroke: #000000; stroke-width: 1.0;" x1="1516" x2="1742" y1="1826.7295" y2="1826.7295"/><rect fill="#F8F8F8" height="30.2969" style="stroke: #383838; stroke-width: 1.5;" width="177" x="1759" y="3"/><text fill="#000000" font-family="DejaVu Sans" font-size="14" lengthAdjust="spacingAndGlyphs" text-decoration="underline" textLength="163" x="1766" y="22.9951">instMain_sys_gate:Gate</text><line style="stroke: #000000; stroke-width: 1.0;" x1="1766" x2="1929" y1="24.9951" y2="24.9951"/><rect fill="#F8F8F8" height="30.2969" style="stroke: #383838; stroke-width: 1.5;" width="177" x="1759" y="1804.7344"/><text fill="#000000" font-family="DejaVu Sans" font-size="14" lengthAdjust="spacingAndGlyphs" text-decoration="underline" textLength="163" x="1766" y="1824.7295">instMain_sys_gate:Gate</text><line style="stroke: #000000; stroke-width: 1.0;" x1="1766" x2="1929" y1="1826.7295" y2="1826.7295"/><rect fill="#F8F8F8" height="30.2969" style="stroke: #383838; stroke-width: 1.5;" width="222" x="1946" y="3"/><text fill="#000000" font-family="DejaVu Sans" font-size="14" lengthAdjust="spacingAndGlyphs" textLength="208" x="1953" y="22.9951">instMain_env_tcEntrancePort0</text><rect fill="#F8F8F8" height="30.2969" style="stroke: #383838; stroke-width: 1.5;" width="222" x="1946" y="1804.7344"/><text fill="#000000" font-family="DejaVu Sans" font-size="14" lengthAdjust="spacingAndGlyphs" textLength="208" x="1953" y="1824.7295">instMain_env_tcEntrancePort0</text><rect fill="#F8F8F8" height="30.2969" style="stroke: #383838; stroke-width: 1.5;" width="220" x="2178" y="3"/><text fill="#000000" font-family="DejaVu Sans" font-size="14" lengthAdjust="spacingAndGlyphs" textLength="206" x="2185" y="22.9951">instMain_sys_tcEntrancePort0</text><rect fill="#F8F8F8" height="30.2969" style="stroke: #383838; stroke-width: 1.5;" width="220" x="2178" y="1804.7344"/><text fill="#000000" font-family="DejaVu Sans" font-size="14" lengthAdjust="spacingAndGlyphs" textLength="206" x="2185" y="1824.7295">instMain_sys_tcEntrancePort0</text><rect fill="#F8F8F8" height="30.2969" style="stroke: #383838; stroke-width: 1.5;" width="222" x="2408" y="3"/><text fill="#000000" font-family="DejaVu Sans" font-size="14" lengthAdjust="spacingAndGlyphs" textLength="208" x="2415" y="22.9951">instMain_env_tcEntrancePort1</text><rect fill="#F8F8F8" height="30.2969" style="stroke: #383838; stroke-width: 1.5;" width="222" x="2408" y="1804.7344"/><text fill="#000000" font-family="DejaVu Sans" font-size="14" lengthAdjust="spacingAndGlyphs" textLength="208" x="2415" y="1824.7295">instMain_env_tcEntrancePort1</text><rect fill="#F8F8F8" height="30.2969" style="stroke: #383838; stroke-width: 1.5;" width="220" x="2640" y="3"/><text fill="#000000" font-family="DejaVu Sans" font-size="14" lengthAdjust="spacingAndGlyphs" textLength="206" x="2647" y="22.9951">instMain_sys_tcEntrancePort1</text><rect fill="#F8F8F8" height="30.2969" style="stroke: #383838; stroke-width: 1.5;" width="220" x="2640" y="1804.7344"/><text fill="#000000" font-family="DejaVu Sans" font-size="14" lengthAdjust="spacingAndGlyphs" textLength="206" x="2647" y="1824.7295">instMain_sys_tcEntrancePort1</text><rect fill="#F8F8F8" height="30.2969" style="stroke: #383838; stroke-width: 1.5;" width="211" x="2870" y="3"/><text fill="#000000" font-family="DejaVu Sans" font-size="14" lengthAdjust="spacingAndGlyphs" textLength="197" x="2877" y="22.9951">instMain_sys_railwaySignPort</text><rect fill="#F8F8F8" height="30.2969" style="stroke: #383838; stroke-width: 1.5;" width="211" x="2870" y="1804.7344"/><text fill="#000000" font-family="DejaVu Sans" font-size="14" lengthAdjust="spacingAndGlyphs" textLength="197" x="2877" y="1824.7295">instMain_sys_railwaySignPort</text><rect fill="#F8F8F8" height="30.2969" style="stroke: #383838; stroke-width: 1.5;" width="213" x="3091" y="3"/><text fill="#000000" font-family="DejaVu Sans" font-size="14" lengthAdjust="spacingAndGlyphs" textLength="199" x="3098" y="22.9951">instMain_env_railwaySignPort</text><rect fill="#F8F8F8" height="30.2969" style="stroke: #383838; stroke-width: 1.5;" width="213" x="3091" y="1804.7344"/><text fill="#000000" font-family="DejaVu Sans" font-size="14" lengthAdjust="spacingAndGlyphs" textLength="199" x="3098" y="1824.7295">instMain_env_railwaySignPort</text><rect fill="#F8F8F8" height="30.2969" style="stroke: #383838; stroke-width: 1.5;" width="175" x="3314" y="3"/><text fill="#000000" font-family="DejaVu Sans" font-size="14" lengthAdjust="spacingAndGlyphs" textLength="161" x="3321" y="22.9951">instMain_env_tcExitPort</text><rect fill="#F8F8F8" height="30.2969" style="stroke: #383838; stroke-width: 1.5;" width="175" x="3314" y="1804.7344"/><text fill="#000000" font-family="DejaVu Sans" font-size="14" lengthAdjust="spacingAndGlyphs" textLength="161" x="3321" y="1824.7295">instMain_env_tcExitPort</text><rect fill="#F8F8F8" height="30.2969" style="stroke: #383838; stroke-width: 1.5;" width="173" x="3499" y="3"/><text fill="#000000" font-family="DejaVu Sans" font-size="14" lengthAdjust="spacingAndGlyphs" textLength="159" x="3506" y="22.9951">instMain_sys_tcExitPort</text><rect fill="#F8F8F8" height="30.2969" style="stroke: #383838; stroke-width: 1.5;" width="173" x="3499" y="1804.7344"/><text fill="#000000" font-family="DejaVu Sans" font-size="14" lengthAdjust="spacingAndGlyphs" textLength="159" x="3506" y="1824.7295">instMain_sys_tcExitPort</text><polygon fill="#ECECEC" points="84,49.2969,110,49.2969,120,60.2969,110,72.2969,84,72.2969,74,60.2969,84,49.2969" style="stroke: #383838; stroke-width: 1.0;"/><text fill="#000000" font-family="DejaVu Sans" font-size="13" lengthAdjust="spacingAndGlyphs" textLength="22" x="86" y="65.3638">Idle</text><polygon fill="#ECECEC" points="303,49.2969,369,49.2969,379,60.2969,369,72.2969,303,72.2969,293,60.2969,303,49.2969" style="stroke: #383838; stroke-width: 1.0;"/><text fill="#000000" font-family="DejaVu Sans" font-size="13" lengthAdjust="spacingAndGlyphs" textLength="62" x="305" y="65.3638">Detection</text><polygon fill="#ECECEC" points="591,49.2969,657,49.2969,667,60.2969,657,72.2969,591,72.2969,581,60.2969,591,49.2969" style="stroke: #383838; stroke-width: 1.0;"/><text fill="#000000" font-family="DejaVu Sans" font-size="13" lengthAdjust="spacingAndGlyphs" textLength="62" x="593" y="65.3638">Detection</text><polygon fill="#ECECEC" points="836,49.2969,902,49.2969,912,60.2969,902,72.2969,836,72.2969,826,60.2969,836,49.2969" style="stroke: #383838; stroke-width: 1.0;"/><text fill="#000000" font-family="DejaVu Sans" font-size="13" lengthAdjust="spacingAndGlyphs" textLength="62" x="838" y="65.3638">Detection</text><polygon fill="#ECECEC" points="1085,49.2969,1111,49.2969,1121,60.2969,1111,72.2969,1085,72.2969,1075,60.2969,1085,49.2969" style="stroke: #383838; stroke-width: 1.0;"/><text fill="#000000" font-family="DejaVu Sans" font-size="13" lengthAdjust="spacingAndGlyphs" textLength="22" x="1087" y="65.3638">Idle</text><polygon fill="#ECECEC" points="1343,49.2969,1386,49.2969,1396,60.2969,1386,72.2969,1343,72.2969,1333,60.2969,1343,49.2969" style="stroke: #383838; stroke-width: 1.0;"/><text fill="#000000" font-family="DejaVu Sans" font-size="13" lengthAdjust="spacingAndGlyphs" textLength="39" x="1345" y="65.3638">Active</text><polygon fill="#ECECEC" points="1602,49.2969,1655,49.2969,1665,60.2969,1655,72.2969,1602,72.2969,1592,60.2969,1602,49.2969" style="stroke: #383838; stroke-width: 1.0;"/><text fill="#000000" font-family="DejaVu Sans" font-size="13" lengthAdjust="spacingAndGlyphs" textLength="49" x="1604" y="65.3638">Inactive</text><polygon fill="#ECECEC" points="1828,49.2969,1866,49.2969,1876,60.2969,1866,72.2969,1828,72.2969,1818,60.2969,1828,49.2969" style="stroke: #383838; stroke-width: 1.0;"/><text fill="#000000" font-family="DejaVu Sans" font-size="13" lengthAdjust="spacingAndGlyphs" textLength="34" x="1830" y="65.3638">Open</text><polygon fill="#ECECEC" points="84,82.4297,110,82.4297,120,93.4297,110,105.4297,84,105.4297,74,93.4297,84,82.4297" style="stroke: #383838; stroke-width: 1.0;"/><text fill="#000000" font-family="DejaVu Sans" font-size="13" lengthAdjust="spacingAndGlyphs" textLength="22" x="86" y="98.4966">Idle</text><polygon fill="#ECECEC" points="303,115.5625,369,115.5625,379,126.5625,369,138.5625,303,138.5625,293,126.5625,303,115.5625" style="stroke: #383838; stroke-width: 1.0;"/><text fill="#000000" font-family="DejaVu Sans" font-size="13" lengthAdjust="spacingAndGlyphs" textLength="62" x="305" y="131.6294">Detection</text><polygon fill="#ECECEC" points="591,148.6953,657,148.6953,667,159.6953,657,171.6953,591,171.6953,581,159.6953,591,148.6953" style="stroke: #383838; stroke-width: 1.0;"/><text fill="#000000" font-family="DejaVu Sans" font-size="13" lengthAdjust="spacingAndGlyphs" textLength="62" x="593" y="164.7622">Detection</text><polygon fill="#ECECEC" points="836,181.8281,902,181.8281,912,192.8281,902,204.8281,836,204.8281,826,192.8281,836,181.8281" style="stroke: #383838; stroke-width: 1.0;"/><text fill="#000000" font-family="DejaVu Sans" font-size="13" lengthAdjust="spacingAndGlyphs" textLength="62" x="838" y="197.895">Detection</text><polygon fill="#ECECEC" points="1085,214.9609,1111,214.9609,1121,225.9609,1111,237.9609,1085,237.9609,1075,225.9609,1085,214.9609" style="stroke: #383838; stroke-width: 1.0;"/><text fill="#000000" font-family="DejaVu Sans" font-size="13" lengthAdjust="spacingAndGlyphs" textLength="22" x="1087" y="231.0278">Idle</text><polygon fill="#ECECEC" points="1343,248.0938,1386,248.0938,1396,259.0938,1386,271.0938,1343,271.0938,1333,259.0938,1343,248.0938" style="stroke: #383838; stroke-width: 1.0;"/><text fill="#000000" font-family="DejaVu Sans" font-size="13" lengthAdjust="spacingAndGlyphs" textLength="39" x="1345" y="264.1606">Active</text><polygon fill="#ECECEC" points="1602,281.2266,1655,281.2266,1665,292.2266,1655,304.2266,1602,304.2266,1592,292.2266,1602,281.2266" style="stroke: #383838; stroke-width: 1.0;"/><text fill="#000000" font-family="DejaVu Sans" font-size="13" lengthAdjust="spacingAndGlyphs" textLength="49" x="1604" y="297.2935">Inactive</text><polygon fill="#ECECEC" points="1828,314.3594,1866,314.3594,1876,325.3594,1866,337.3594,1828,337.3594,1818,325.3594,1828,314.3594" style="stroke: #383838; stroke-width: 1.0;"/><text fill="#000000" font-family="DejaVu Sans" font-size="13" lengthAdjust="spacingAndGlyphs" textLength="34" x="1830" y="330.4263">Open</text><polygon fill="#383838" points="2045,359.625,2055,363.625,2045,367.625,2049,363.625" style="stroke: #383838; stroke-width: 1.0;"/><line style="stroke: #383838; stroke-width: 1.0;" x1="97.5" x2="2051" y1="363.625" y2="363.625"/><text fill="#000000" font-family="DejaVu Sans" font-size="13" lengthAdjust="spacingAndGlyphs" textLength="62" x="104.5" y="358.5591">activation</text><polygon fill="#383838" points="2276,388.7578,2286,392.7578,2276,396.7578,2280,392.7578" style="stroke: #383838; stroke-width: 1.0;"/><line style="stroke: #383838; stroke-width: 1.0;" x1="2057" x2="2282" y1="392.7578" y2="392.7578"/><text fill="#000000" font-family="DejaVu Sans" font-size="13" lengthAdjust="spacingAndGlyphs" textLength="62" x="2064" y="387.6919">activation</text><polygon fill="#383838" points="347,417.8906,337,421.8906,347,425.8906,343,421.8906" style="stroke: #383838; stroke-width: 1.0;"/><line style="stroke: #383838; stroke-width: 1.0;" x1="341" x2="2287" y1="421.8906" y2="421.8906"/><text fill="#000000" font-family="DejaVu Sans" font-size="13" lengthAdjust="spacingAndGlyphs" textLength="62" x="353" y="416.8247">activation</text><polygon fill="#ECECEC" points="85,434.8906,109,434.8906,119,445.8906,109,457.8906,85,457.8906,75,445.8906,85,434.8906" style="stroke: #383838; stroke-width: 1.0;"/><text fill="#000000" font-family="DejaVu Sans" font-size="13" lengthAdjust="spacingAndGlyphs" textLength="20" x="87" y="450.9575">Far</text><polygon fill="#383838" points="1086.5,480.1563,1096.5,484.1563,1086.5,488.1563,1090.5,484.1563" style="stroke: #383838; stroke-width: 1.0;"/><line style="stroke: #383838; stroke-width: 1.0;" x1="336" x2="1092.5" y1="484.1563" y2="484.1563"/><text fill="#000000" font-family="DejaVu Sans" font-size="13" lengthAdjust="spacingAndGlyphs" textLength="119" x="343" y="479.0903">entranceDetection</text><polygon fill="#ECECEC" points="303,497.1563,369,497.1563,379,508.1563,369,520.1563,303,520.1563,293,508.1563,303,497.1563" style="stroke: #383838; stroke-width: 1.0;"/><text fill="#000000" font-family="DejaVu Sans" font-size="13" lengthAdjust="spacingAndGlyphs" textLength="62" x="305" y="513.2231">Detection</text><polygon fill="#383838" points="1617,542.4219,1627,546.4219,1617,550.4219,1621,546.4219" style="stroke: #383838; stroke-width: 1.0;"/><line style="stroke: #383838; stroke-width: 1.0;" x1="1098.5" x2="1623" y1="546.4219" y2="546.4219"/><text fill="#000000" font-family="DejaVu Sans" font-size="13" lengthAdjust="spacingAndGlyphs" textLength="57" x="1105.5" y="541.356">switchOn</text><polygon fill="#ECECEC" points="1044,559.4219,1153,559.4219,1163,570.4219,1153,582.4219,1044,582.4219,1034,570.4219,1044,559.4219" style="stroke: #383838; stroke-width: 1.0;"/><text fill="#000000" font-family="DejaVu Sans" font-size="13" lengthAdjust="spacingAndGlyphs" textLength="105" x="1046" y="575.4888">WaitRoadSignOn</text><polygon fill="#383838" points="1109.5,604.6875,1099.5,608.6875,1109.5,612.6875,1105.5,608.6875" style="stroke: #383838; stroke-width: 1.0;"/><line style="stroke: #383838; stroke-width: 1.0;" x1="1103.5" x2="1628" y1="608.6875" y2="608.6875"/><text fill="#000000" font-family="DejaVu Sans" font-size="13" lengthAdjust="spacingAndGlyphs" textLength="75" x="1115.5" y="603.6216">roadSignOn</text><polygon fill="#ECECEC" points="1607,621.6875,1650,621.6875,1660,632.6875,1650,644.6875,1607,644.6875,1597,632.6875,1607,621.6875" style="stroke: #383838; stroke-width: 1.0;"/><text fill="#000000" font-family="DejaVu Sans" font-size="13" lengthAdjust="spacingAndGlyphs" textLength="39" x="1609" y="637.7544">Active</text><polygon fill="#ECECEC" points="1055,654.8203,1141,654.8203,1151,665.8203,1141,677.8203,1055,677.8203,1045,665.8203,1055,654.8203" style="stroke: #383838; stroke-width: 1.0;"/><text fill="#000000" font-family="DejaVu Sans" font-size="13" lengthAdjust="spacingAndGlyphs" textLength="82" x="1057" y="670.8872">FarDetection</text><polygon fill="#383838" points="2507,700.0859,2517,704.0859,2507,708.0859,2511,704.0859" style="stroke: #383838; stroke-width: 1.0;"/><line style="stroke: #383838; stroke-width: 1.0;" x1="97.5" x2="2513" y1="704.0859" y2="704.0859"/><text fill="#000000" font-family="DejaVu Sans" font-size="13" lengthAdjust="spacingAndGlyphs" textLength="62" x="104.5" y="699.02">activation</text><polygon fill="#383838" points="2738,729.2188,2748,733.2188,2738,737.2188,2742,733.2188" style="stroke: #383838; stroke-width: 1.0;"/><line style="stroke: #383838; stroke-width: 1.0;" x1="2519" x2="2744" y1="733.2188" y2="733.2188"/><text fill="#000000" font-family="DejaVu Sans" font-size="13" lengthAdjust="spacingAndGlyphs" textLength="62" x="2526" y="728.1528">activation</text><polygon fill="#383838" points="635,758.3516,625,762.3516,635,766.3516,631,762.3516" style="stroke: #383838; stroke-width: 1.0;"/><line style="stroke: #383838; stroke-width: 1.0;" x1="629" x2="2749" y1="762.3516" y2="762.3516"/><text fill="#000000" font-family="DejaVu Sans" font-size="13" lengthAdjust="spacingAndGlyphs" textLength="62" x="641" y="757.2856">activation</text><polygon fill="#ECECEC" points="78,775.3516,117,775.3516,127,786.3516,117,798.3516,78,798.3516,68,786.3516,78,775.3516" style="stroke: #383838; stroke-width: 1.0;"/><text fill="#000000" font-family="DejaVu Sans" font-size="13" lengthAdjust="spacingAndGlyphs" textLength="35" x="80" y="791.4185">Close</text><polygon fill="#383838" points="1086.5,820.6172,1096.5,824.6172,1086.5,828.6172,1090.5,824.6172" style="stroke: #383838; stroke-width: 1.0;"/><line style="stroke: #383838; stroke-width: 1.0;" x1="624" x2="1092.5" y1="824.6172" y2="824.6172"/><text fill="#000000" font-family="DejaVu Sans" font-size="13" lengthAdjust="spacingAndGlyphs" textLength="119" x="631" y="819.5513">entranceDetection</text><polygon fill="#ECECEC" points="591,837.6172,657,837.6172,667,848.6172,657,860.6172,591,860.6172,581,848.6172,591,837.6172" style="stroke: #383838; stroke-width: 1.0;"/><text fill="#000000" font-family="DejaVu Sans" font-size="13" lengthAdjust="spacingAndGlyphs" textLength="62" x="593" y="853.6841">Detection</text><polygon fill="#383838" points="1835.5,882.8828,1845.5,886.8828,1835.5,890.8828,1839.5,886.8828" style="stroke: #383838; stroke-width: 1.0;"/><line style="stroke: #383838; stroke-width: 1.0;" x1="1098.5" x2="1841.5" y1="886.8828" y2="886.8828"/><text fill="#000000" font-family="DejaVu Sans" font-size="13" lengthAdjust="spacingAndGlyphs" textLength="33" x="1105.5" y="881.8169">close</text><polygon fill="#ECECEC" points="1048,899.8828,1149,899.8828,1159,910.8828,1149,922.8828,1048,922.8828,1038,910.8828,1048,899.8828" style="stroke: #383838; stroke-width: 1.0;"/><text fill="#000000" font-family="DejaVu Sans" font-size="13" lengthAdjust="spacingAndGlyphs" textLength="97" x="1050" y="915.9497">CloseDetection</text><polygon fill="#383838" points="1109.5,945.1484,1099.5,949.1484,1109.5,953.1484,1105.5,949.1484" style="stroke: #383838; stroke-width: 1.0;"/><line style="stroke: #383838; stroke-width: 1.0;" x1="1103.5" x2="1846.5" y1="949.1484" y2="949.1484"/><text fill="#000000" font-family="DejaVu Sans" font-size="13" lengthAdjust="spacingAndGlyphs" textLength="72" x="1115.5" y="944.0825">gateClosed</text><polygon fill="#ECECEC" points="1824,962.1484,1871,962.1484,1881,973.1484,1871,985.1484,1824,985.1484,1814,973.1484,1824,962.1484" style="stroke: #383838; stroke-width: 1.0;"/><text fill="#000000" font-family="DejaVu Sans" font-size="13" lengthAdjust="spacingAndGlyphs" textLength="43" x="1826" y="978.2153">Closed</text><polygon fill="#383838" points="1353,1007.4141,1363,1011.4141,1353,1015.4141,1357,1011.4141" style="stroke: #383838; stroke-width: 1.0;"/><line style="stroke: #383838; stroke-width: 1.0;" x1="1098.5" x2="1359" y1="1011.4141" y2="1011.4141"/><text fill="#000000" font-family="DejaVu Sans" font-size="13" lengthAdjust="spacingAndGlyphs" textLength="57" x="1105.5" y="1006.3481">switchOff</text><polygon fill="#ECECEC" points="1085,1024.4141,1111,1024.4141,1121,1035.4141,1111,1047.4141,1085,1047.4141,1075,1035.4141,1085,1024.4141" style="stroke: #383838; stroke-width: 1.0;"/><text fill="#000000" font-family="DejaVu Sans" font-size="13" lengthAdjust="spacingAndGlyphs" textLength="22" x="1087" y="1040.481">Idle</text><polygon fill="#383838" points="2963.5,1069.6797,2973.5,1073.6797,2963.5,1077.6797,2967.5,1073.6797" style="stroke: #383838; stroke-width: 1.0;"/><line style="stroke: #383838; stroke-width: 1.0;" x1="1365" x2="2969.5" y1="1073.6797" y2="1073.6797"/><text fill="#000000" font-family="DejaVu Sans" font-size="13" lengthAdjust="spacingAndGlyphs" textLength="84" x="1372" y="1068.6138">authorization</text><polygon fill="#383838" points="3185.5,1098.8125,3195.5,1102.8125,3185.5,1106.8125,3189.5,1102.8125" style="stroke: #383838; stroke-width: 1.0;"/><line style="stroke: #383838; stroke-width: 1.0;" x1="2975.5" x2="3191.5" y1="1102.8125" y2="1102.8125"/><text fill="#000000" font-family="DejaVu Sans" font-size="13" lengthAdjust="spacingAndGlyphs" textLength="84" x="2982.5" y="1097.7466">authorization</text><polygon fill="#383838" points="108.5,1127.9453,98.5,1131.9453,108.5,1135.9453,104.5,1131.9453" style="stroke: #383838; stroke-width: 1.0;"/><line style="stroke: #383838; stroke-width: 1.0;" x1="102.5" x2="3196.5" y1="1131.9453" y2="1131.9453"/><text fill="#000000" font-family="DejaVu Sans" font-size="13" lengthAdjust="spacingAndGlyphs" textLength="84" x="114.5" y="1126.8794">authorization</text><polygon fill="#ECECEC" points="1338,1144.9453,1391,1144.9453,1401,1155.9453,1391,1167.9453,1338,1167.9453,1328,1155.9453,1338,1144.9453" style="stroke: #383838; stroke-width: 1.0;"/><text fill="#000000" font-family="DejaVu Sans" font-size="13" lengthAdjust="spacingAndGlyphs" textLength="49" x="1340" y="1161.0122">Inactive</text><polygon fill="#ECECEC" points="71,1178.0781,124,1178.0781,134,1189.0781,124,1201.0781,71,1201.0781,61,1189.0781,71,1178.0781" style="stroke: #383838; stroke-width: 1.0;"/><text fill="#000000" font-family="DejaVu Sans" font-size="13" lengthAdjust="spacingAndGlyphs" textLength="49" x="73" y="1194.145">Passing</text><polygon fill="#383838" points="3389.5,1223.3438,3399.5,1227.3438,3389.5,1231.3438,3393.5,1227.3438" style="stroke: #383838; stroke-width: 1.0;"/><line style="stroke: #383838; stroke-width: 1.0;" x1="97.5" x2="3395.5" y1="1227.3438" y2="1227.3438"/><text fill="#000000" font-family="DejaVu Sans" font-size="13" lengthAdjust="spacingAndGlyphs" textLength="62" x="104.5" y="1222.2778">activation</text><polygon fill="#383838" points="3573.5,1252.4766,3583.5,1256.4766,3573.5,1260.4766,3577.5,1256.4766" style="stroke: #383838; stroke-width: 1.0;"/><line style="stroke: #383838; stroke-width: 1.0;" x1="3401.5" x2="3579.5" y1="1256.4766" y2="1256.4766"/><text fill="#000000" font-family="DejaVu Sans" font-size="13" lengthAdjust="spacingAndGlyphs" textLength="62" x="3408.5" y="1251.4106">activation</text><polygon fill="#383838" points="880.5,1281.6094,870.5,1285.6094,880.5,1289.6094,876.5,1285.6094" style="stroke: #383838; stroke-width: 1.0;"/><line style="stroke: #383838; stroke-width: 1.0;" x1="874.5" x2="3584.5" y1="1285.6094" y2="1285.6094"/><text fill="#000000" font-family="DejaVu Sans" font-size="13" lengthAdjust="spacingAndGlyphs" textLength="62" x="886.5" y="1280.5435">activation</text><polygon fill="#ECECEC" points="84,1298.6094,110,1298.6094,120,1309.6094,110,1321.6094,84,1321.6094,74,1309.6094,84,1298.6094" style="stroke: #383838; stroke-width: 1.0;"/><text fill="#000000" font-family="DejaVu Sans" font-size="13" lengthAdjust="spacingAndGlyphs" textLength="22" x="86" y="1314.6763">Idle</text><polygon fill="#383838" points="1086.5,1343.875,1096.5,1347.875,1086.5,1351.875,1090.5,1347.875" style="stroke: #383838; stroke-width: 1.0;"/><line style="stroke: #383838; stroke-width: 1.0;" x1="869.5" x2="1092.5" y1="1347.875" y2="1347.875"/><text fill="#000000" font-family="DejaVu Sans" font-size="13" lengthAdjust="spacingAndGlyphs" textLength="85" x="876.5" y="1342.8091">exitDetection</text><polygon fill="#ECECEC" points="836,1360.875,902,1360.875,912,1371.875,902,1383.875,836,1383.875,826,1371.875,836,1360.875" style="stroke: #383838; stroke-width: 1.0;"/><text fill="#000000" font-family="DejaVu Sans" font-size="13" lengthAdjust="spacingAndGlyphs" textLength="62" x="838" y="1376.9419">Detection</text><polygon fill="#383838" points="1353,1406.1406,1363,1410.1406,1353,1414.1406,1357,1410.1406" style="stroke: #383838; stroke-width: 1.0;"/><line style="stroke: #383838; stroke-width: 1.0;" x1="1098.5" x2="1359" y1="1410.1406" y2="1410.1406"/><text fill="#000000" font-family="DejaVu Sans" font-size="13" lengthAdjust="spacingAndGlyphs" textLength="57" x="1105.5" y="1405.0747">switchOn</text><polygon fill="#ECECEC" points="1037,1423.1406,1160,1423.1406,1170,1434.1406,1160,1446.1406,1037,1446.1406,1027,1434.1406,1037,1423.1406" style="stroke: #383838; stroke-width: 1.0;"/><text fill="#000000" font-family="DejaVu Sans" font-size="13" lengthAdjust="spacingAndGlyphs" textLength="119" x="1039" y="1439.2075">WaitRailwaySignOn</text><polygon fill="#383838" points="1109.5,1468.4063,1099.5,1472.4063,1109.5,1476.4063,1105.5,1472.4063" style="stroke: #383838; stroke-width: 1.0;"/><line style="stroke: #383838; stroke-width: 1.0;" x1="1103.5" x2="1364" y1="1472.4063" y2="1472.4063"/><text fill="#000000" font-family="DejaVu Sans" font-size="13" lengthAdjust="spacingAndGlyphs" textLength="89" x="1115.5" y="1467.3403">railwaySignOn</text><polygon fill="#ECECEC" points="1343,1485.4063,1386,1485.4063,1396,1496.4063,1386,1508.4063,1343,1508.4063,1333,1496.4063,1343,1485.4063" style="stroke: #383838; stroke-width: 1.0;"/><text fill="#000000" font-family="DejaVu Sans" font-size="13" lengthAdjust="spacingAndGlyphs" textLength="39" x="1345" y="1501.4731">Active</text><polygon fill="#383838" points="1835.5,1530.6719,1845.5,1534.6719,1835.5,1538.6719,1839.5,1534.6719" style="stroke: #383838; stroke-width: 1.0;"/><line style="stroke: #383838; stroke-width: 1.0;" x1="1098.5" x2="1841.5" y1="1534.6719" y2="1534.6719"/><text fill="#000000" font-family="DejaVu Sans" font-size="13" lengthAdjust="spacingAndGlyphs" textLength="32" x="1105.5" y="1529.606">open</text><polygon fill="#ECECEC" points="1050,1547.6719,1146,1547.6719,1156,1558.6719,1146,1570.6719,1050,1570.6719,1040,1558.6719,1050,1547.6719" style="stroke: #383838; stroke-width: 1.0;"/><text fill="#000000" font-family="DejaVu Sans" font-size="13" lengthAdjust="spacingAndGlyphs" textLength="92" x="1052" y="1563.7388">WaitGateOpen</text><polygon fill="#383838" points="1109.5,1592.9375,1099.5,1596.9375,1109.5,1600.9375,1105.5,1596.9375" style="stroke: #383838; stroke-width: 1.0;"/><line style="stroke: #383838; stroke-width: 1.0;" x1="1103.5" x2="1846.5" y1="1596.9375" y2="1596.9375"/><text fill="#000000" font-family="DejaVu Sans" font-size="13" lengthAdjust="spacingAndGlyphs" textLength="63" x="1115.5" y="1591.8716">gateOpen</text><polygon fill="#ECECEC" points="1828,1609.9375,1866,1609.9375,1876,1620.9375,1866,1632.9375,1828,1632.9375,1818,1620.9375,1828,1609.9375" style="stroke: #383838; stroke-width: 1.0;"/><text fill="#000000" font-family="DejaVu Sans" font-size="13" lengthAdjust="spacingAndGlyphs" textLength="34" x="1830" y="1626.0044">Open</text><polygon fill="#383838" points="1617,1655.2031,1627,1659.2031,1617,1663.2031,1621,1659.2031" style="stroke: #383838; stroke-width: 1.0;"/><line style="stroke: #383838; stroke-width: 1.0;" x1="1098.5" x2="1623" y1="1659.2031" y2="1659.2031"/><text fill="#000000" font-family="DejaVu Sans" font-size="13" lengthAdjust="spacingAndGlyphs" textLength="57" x="1105.5" y="1654.1372">switchOff</text><polygon fill="#ECECEC" points="1044,1672.2031,1153,1672.2031,1163,1683.2031,1153,1695.2031,1044,1695.2031,1034,1683.2031,1044,1672.2031" style="stroke: #383838; stroke-width: 1.0;"/><text fill="#000000" font-family="DejaVu Sans" font-size="13" lengthAdjust="spacingAndGlyphs" textLength="105" x="1046" y="1688.27">WaitRoadSignOff</text><polygon fill="#383838" points="1109.5,1717.4688,1099.5,1721.4688,1109.5,1725.4688,1105.5,1721.4688" style="stroke: #383838; stroke-width: 1.0;"/><line style="stroke: #383838; stroke-width: 1.0;" x1="1103.5" x2="1628" y1="1721.4688" y2="1721.4688"/><text fill="#000000" font-family="DejaVu Sans" font-size="13" lengthAdjust="spacingAndGlyphs" textLength="75" x="1115.5" y="1716.4028">roadSignOff</text><polygon fill="#ECECEC" points="1602,1734.4688,1655,1734.4688,1665,1745.4688,1655,1757.4688,1602,1757.4688,1592,1745.4688,1602,1734.4688" style="stroke: #383838; stroke-width: 1.0;"/><text fill="#000000" font-family="DejaVu Sans" font-size="13" lengthAdjust="spacingAndGlyphs" textLength="49" x="1604" y="1750.5356">Inactive</text><polygon fill="#ECECEC" points="1085,1767.6016,1111,1767.6016,1121,1778.6016,1111,1790.6016,1085,1790.6016,1075,1778.6016,1085,1767.6016" style="stroke: #383838; stroke-width: 1.0;"/><text fill="#000000" font-family="DejaVu Sans" font-size="13" lengthAdjust="spacingAndGlyphs" textLength="22" x="1087" y="1783.6685">Idle</text><!--
@startuml
skinparam shadowing false
skinparam defaultFontName DejaVu Sans
skinparam monochrome true
participant "<u>instMain_env_train:Train</u>" as instMain_env_train
participant "<u>instMain_sys_tcEntrance0:EntranceTC</u>" as instMain_sys_tcEntrance0
participant "<u>instMain_sys_tcEntrance1:EntranceTC</u>" as instMain_sys_tcEntrance1
participant "<u>instMain_sys_tcExit:ExitTC</u>" as instMain_sys_tcExit
participant "<u>instMain_sys_controller:Controller</u>" as instMain_sys_controller
participant "<u>instMain_sys_railwaySign:RailwaySign</u>" as instMain_sys_railwaySign
participant "<u>instMain_sys_roadSign:RoadSign</u>" as instMain_sys_roadSign
participant "<u>instMain_sys_gate:Gate</u>" as instMain_sys_gate
/ hnote over instMain_env_train : Idle
/ hnote over instMain_sys_tcEntrance0 : Detection
/ hnote over instMain_sys_tcEntrance1 : Detection
/ hnote over instMain_sys_tcExit : Detection
/ hnote over instMain_sys_controller : Idle
/ hnote over instMain_sys_railwaySign : Active
/ hnote over instMain_sys_roadSign : Inactive
/ hnote over instMain_sys_gate : Open
hnote over instMain_env_train : Idle
hnote over instMain_sys_tcEntrance0 : Detection
hnote over instMain_sys_tcEntrance1 : Detection
hnote over instMain_sys_tcExit : Detection
hnote over instMain_sys_controller : Idle
hnote over instMain_sys_railwaySign : Active
hnote over instMain_sys_roadSign : Inactive
hnote over instMain_sys_gate : Open
instMain_env_train -> instMain_env_tcEntrancePort0 : activation
instMain_env_tcEntrancePort0 -> instMain_sys_tcEntrancePort0 : activation
instMain_sys_tcEntrancePort0 -> instMain_sys_tcEntrance0 : activation
hnote over instMain_env_train : Far
instMain_sys_tcEntrance0 -> instMain_sys_controller : entranceDetection
hnote over instMain_sys_tcEntrance0 : Detection
instMain_sys_controller -> instMain_sys_roadSign : switchOn
hnote over instMain_sys_controller : WaitRoadSignOn
instMain_sys_roadSign -> instMain_sys_controller : roadSignOn
hnote over instMain_sys_roadSign : Active
hnote over instMain_sys_controller : FarDetection
instMain_env_train -> instMain_env_tcEntrancePort1 : activation
instMain_env_tcEntrancePort1 -> instMain_sys_tcEntrancePort1 : activation
instMain_sys_tcEntrancePort1 -> instMain_sys_tcEntrance1 : activation
hnote over instMain_env_train : Close
instMain_sys_tcEntrance1 -> instMain_sys_controller : entranceDetection
hnote over instMain_sys_tcEntrance1 : Detection
instMain_sys_controller -> instMain_sys_gate : close
hnote over instMain_sys_controller : CloseDetection
instMain_sys_gate -> instMain_sys_controller : gateClosed
hnote over instMain_sys_gate : Closed
instMain_sys_controller -> instMain_sys_railwaySign : switchOff
hnote over instMain_sys_controller : Idle
instMain_sys_railwaySign -> instMain_sys_railwaySignPort : authorization
instMain_sys_railwaySignPort -> instMain_env_railwaySignPort : authorization
instMain_env_railwaySignPort -> instMain_env_train : authorization
hnote over instMain_sys_railwaySign : Inactive
hnote over instMain_env_train : Passing
instMain_env_train -> instMain_env_tcExitPort : activation
instMain_env_tcExitPort -> instMain_sys_tcExitPort : activation
instMain_sys_tcExitPort -> instMain_sys_tcExit : activation
hnote over instMain_env_train : Idle
instMain_sys_tcExit -> instMain_sys_controller : exitDetection
hnote over instMain_sys_tcExit : Detection
instMain_sys_controller -> instMain_sys_railwaySign : switchOn
hnote over instMain_sys_controller : WaitRailwaySignOn
instMain_sys_railwaySign -> instMain_sys_controller : railwaySignOn
hnote over instMain_sys_railwaySign : Active
instMain_sys_controller -> instMain_sys_gate : open
hnote over instMain_sys_controller : WaitGateOpen
instMain_sys_gate -> instMain_sys_controller : gateOpen
hnote over instMain_sys_gate : Open
instMain_sys_controller -> instMain_sys_roadSign : switchOff
hnote over instMain_sys_controller : WaitRoadSignOff
instMain_sys_roadSign -> instMain_sys_controller : roadSignOff
hnote over instMain_sys_roadSign : Inactive
hnote over instMain_sys_controller : Idle
@enduml

PlantUML version 1.2018.11(Sat Sep 22 18:43:53 CEST 2018)
(GPL source distribution)
Java Runtime: OpenJDK Runtime Environment
JVM: OpenJDK 64-Bit Server VM
Java Version: 1.8.0_212-8u212-b01-1~deb9u1-b01
Operating System: Linux
OS Version: 4.9.0-8-amd64
Default Encoding: UTF-8
Language: fr
Country: FR
--></g></svg>