<?xml version="1.0" encoding="UTF-8" standalone="no"?><svg xmlns="http://www.w3.org/2000/svg" xmlns:xlink="http://www.w3.org/1999/xlink" contentScriptType="application/ecmascript" contentStyleType="text/css" height="1440px" preserveAspectRatio="none" style="width:2000px;height:1440px;" version="1.1" viewBox="0 0 2000 1440" width="2000px" zoomAndPan="magnify"><defs/><g><line style="stroke: #383838; stroke-width: 1.0; stroke-dasharray: 5.0,5.0;" x1="144" x2="144" y1="34.2969" y2="1400.1406"/><line style="stroke: #383838; stroke-width: 1.0; stroke-dasharray: 5.0,5.0;" x1="423" x2="423" y1="34.2969" y2="1400.1406"/><line style="stroke: #383838; stroke-width: 1.0; stroke-dasharray: 5.0,5.0;" x1="717" x2="717" y1="34.2969" y2="1400.1406"/><line style="stroke: #383838; stroke-width: 1.0; stroke-dasharray: 5.0,5.0;" x1="988" x2="988" y1="34.2969" y2="1400.1406"/><line style="stroke: #383838; stroke-width: 1.0; stroke-dasharray: 5.0,5.0;" x1="1214" x2="1214" y1="34.2969" y2="1400.1406"/><line style="stroke: #383838; stroke-width: 1.0; stroke-dasharray: 5.0,5.0;" x1="1445" x2="1445" y1="34.2969" y2="1400.1406"/><line style="stroke: #383838; stroke-width: 1.0; stroke-dasharray: 5.0,5.0;" x1="1681" x2="1681" y1="34.2969" y2="1400.1406"/><line style="stroke: #383838; stroke-width: 1.0; stroke-dasharray: 5.0,5.0;" x1="1895" x2="1895" y1="34.2969" y2="1400.1406"/><rect fill="#F8F8F8" height="30.2969" style="stroke: #383838; stroke-width: 1.5;" width="272" x="8" y="3"/><text fill="#000000" font-family="DejaVu Sans" font-size="14" lengthAdjust="spacingAndGlyphs" text-decoration="underline" textLength="258" x="15" y="22.9951">instMain_system_controller:Controller</text><line style="stroke: #000000; stroke-width: 1.0;" x1="15" x2="273" y1="24.9951" y2="24.9951"/><rect fill="#F8F8F8" height="30.2969" style="stroke: #383838; stroke-width: 1.5;" width="272" x="8" y="1399.1406"/><text fill="#000000" font-family="DejaVu Sans" font-size="14" lengthAdjust="spacingAndGlyphs" text-decoration="underline" textLength="258" x="15" y="1419.1357">instMain_system_controller:Controller</text><line style="stroke: #000000; stroke-width: 1.0;" x1="15" x2="273" y1="1421.1357" y2="1421.1357"/><rect fill="#F8F8F8" height="30.2969" style="stroke: #383838; stroke-width: 1.5;" width="266" x="290" y="3"/><text fill="#000000" font-family="DejaVu Sans" font-size="14" lengthAdjust="spacingAndGlyphs" text-decoration="underline" textLength="252" x="297" y="22.9951">instMain_env_envLed:SimulatedLight</text><line style="stroke: #000000; stroke-width: 1.0;" x1="297" x2="549" y1="24.9951" y2="24.9951"/><rect fill="#F8F8F8" height="30.2969" style="stroke: #383838; stroke-width: 1.5;" width="266" x="290" y="1399.1406"/><text fill="#000000" font-family="DejaVu Sans" font-size="14" lengthAdjust="spacingAndGlyphs" text-decoration="underline" textLength="252" x="297" y="1419.1357">instMain_env_envLed:SimulatedLight</text><line style="stroke: #000000; stroke-width: 1.0;" x1="297" x2="549" y1="1421.1357" y2="1421.1357"/><rect fill="#F8F8F8" height="30.2969" style="stroke: #383838; stroke-width: 1.5;" width="302" x="566" y="3"/><text fill="#000000" font-family="DejaVu Sans" font-size="14" lengthAdjust="spacingAndGlyphs" text-decoration="underline" textLength="288" x="573" y="22.9951">instMain_env_envButton:SimulatedButton</text><line style="stroke: #000000; stroke-width: 1.0;" x1="573" x2="861" y1="24.9951" y2="24.9951"/><rect fill="#F8F8F8" height="30.2969" style="stroke: #383838; stroke-width: 1.5;" width="302" x="566" y="1399.1406"/><text fill="#000000" font-family="DejaVu Sans" font-size="14" lengthAdjust="spacingAndGlyphs" text-decoration="underline" textLength="288" x="573" y="1419.1357">instMain_env_envButton:SimulatedButton</text><line style="stroke: #000000; stroke-width: 1.0;" x1="573" x2="861" y1="1421.1357" y2="1421.1357"/><rect fill="#F8F8F8" height="30.2969" style="stroke: #383838; stroke-width: 1.5;" width="221" x="878" y="3"/><text fill="#000000" font-family="DejaVu Sans" font-size="14" lengthAdjust="spacingAndGlyphs" textLength="207" x="885" y="22.9951">instMain_env_envButton_peer</text><rect fill="#F8F8F8" height="30.2969" style="stroke: #383838; stroke-width: 1.5;" width="221" x="878" y="1399.1406"/><text fill="#000000" font-family="DejaVu Sans" font-size="14" lengthAdjust="spacingAndGlyphs" textLength="207" x="885" y="1419.1357">instMain_env_envButton_peer</text><rect fill="#F8F8F8" height="30.2969" style="stroke: #383838; stroke-width: 1.5;" width="210" x="1109" y="3"/><text fill="#000000" font-family="DejaVu Sans" font-size="14" lengthAdjust="spacingAndGlyphs" textLength="196" x="1116" y="22.9951">instMain_env_envButtonPort</text><rect fill="#F8F8F8" height="30.2969" style="stroke: #383838; stroke-width: 1.5;" width="210" x="1109" y="1399.1406"/><text fill="#000000" font-family="DejaVu Sans" font-size="14" lengthAdjust="spacingAndGlyphs" textLength="196" x="1116" y="1419.1357">instMain_env_envButtonPort</text><rect fill="#F8F8F8" height="30.2969" style="stroke: #383838; stroke-width: 1.5;" width="233" x="1329" y="3"/><text fill="#000000" font-family="DejaVu Sans" font-size="14" lengthAdjust="spacingAndGlyphs" textLength="219" x="1336" y="22.9951">instMain_system_sysButtonPort</text><rect fill="#F8F8F8" height="30.2969" style="stroke: #383838; stroke-width: 1.5;" width="233" x="1329" y="1399.1406"/><text fill="#000000" font-family="DejaVu Sans" font-size="14" lengthAdjust="spacingAndGlyphs" textLength="219" x="1336" y="1419.1357">instMain_system_sysButtonPort</text><rect fill="#F8F8F8" height="30.2969" style="stroke: #383838; stroke-width: 1.5;" width="219" x="1572" y="3"/><text fill="#000000" font-family="DejaVu Sans" font-size="14" lengthAdjust="spacingAndGlyphs" textLength="205" x="1579" y="22.9951">instMain_system_sysLightPort</text><rect fill="#F8F8F8" height="30.2969" style="stroke: #383838; stroke-width: 1.5;" width="219" x="1572" y="1399.1406"/><text fill="#000000" font-family="DejaVu Sans" font-size="14" lengthAdjust="spacingAndGlyphs" textLength="205" x="1579" y="1419.1357">instMain_system_sysLightPort</text><rect fill="#F8F8F8" height="30.2969" style="stroke: #383838; stroke-width: 1.5;" width="188" x="1801" y="3"/><text fill="#000000" font-family="DejaVu Sans" font-size="14" lengthAdjust="spacingAndGlyphs" textLength="174" x="1808" y="22.9951">instMain_env_envLedPort</text><rect fill="#F8F8F8" height="30.2969" style="stroke: #383838; stroke-width: 1.5;" width="188" x="1801" y="1399.1406"/><text fill="#000000" font-family="DejaVu Sans" font-size="14" lengthAdjust="spacingAndGlyphs" textLength="174" x="1808" y="1419.1357">instMain_env_envLedPort</text><polygon fill="#ECECEC" points="131,49.2969,157,49.2969,167,60.2969,157,72.2969,131,72.2969,121,60.2969,131,49.2969" style="stroke: #383838; stroke-width: 1.0;"/><text fill="#000000" font-family="DejaVu Sans" font-size="13" lengthAdjust="spacingAndGlyphs" textLength="22" x="133" y="65.3638">Idle</text><polygon fill="#ECECEC" points="412,49.2969,434,49.2969,444,60.2969,434,72.2969,412,72.2969,402,60.2969,412,49.2969" style="stroke: #383838; stroke-width: 1.0;"/><text fill="#000000" font-family="DejaVu Sans" font-size="13" lengthAdjust="spacingAndGlyphs" textLength="18" x="414" y="65.3638">Off</text><polygon fill="#ECECEC" points="686,49.2969,748,49.2969,758,60.2969,748,72.2969,686,72.2969,676,60.2969,686,49.2969" style="stroke: #383838; stroke-width: 1.0;"/><text fill="#000000" font-family="DejaVu Sans" font-size="13" lengthAdjust="spacingAndGlyphs" textLength="58" x="688" y="65.3638">Released</text><polygon fill="#ECECEC" points="131,82.4297,157,82.4297,167,93.4297,157,105.4297,131,105.4297,121,93.4297,131,82.4297" style="stroke: #383838; stroke-width: 1.0;"/><text fill="#000000" font-family="DejaVu Sans" font-size="13" lengthAdjust="spacingAndGlyphs" textLength="22" x="133" y="98.4966">Idle</text><polygon fill="#ECECEC" points="412,115.5625,434,115.5625,444,126.5625,434,138.5625,412,138.5625,402,126.5625,412,115.5625" style="stroke: #383838; stroke-width: 1.0;"/><text fill="#000000" font-family="DejaVu Sans" font-size="13" lengthAdjust="spacingAndGlyphs" textLength="18" x="414" y="131.6294">Off</text><polygon fill="#ECECEC" points="686,148.6953,748,148.6953,758,159.6953,748,171.6953,686,171.6953,676,159.6953,686,148.6953" style="stroke: #383838; stroke-width: 1.0;"/><text fill="#000000" font-family="DejaVu Sans" font-size="13" lengthAdjust="spacingAndGlyphs" textLength="58" x="688" y="164.7622">Released</text><polygon fill="#383838" points="976.5,193.9609,986.5,197.9609,976.5,201.9609,980.5,197.9609" style="stroke: #383838; stroke-width: 1.0;"/><line style="stroke: #383838; stroke-width: 1.0;" x1="717" x2="982.5" y1="197.9609" y2="197.9609"/><text fill="#000000" font-family="DejaVu Sans" font-size="13" lengthAdjust="spacingAndGlyphs" textLength="93" x="724" y="192.895">buttonPressed</text><polygon fill="#383838" points="1202,223.0938,1212,227.0938,1202,231.0938,1206,227.0938" style="stroke: #383838; stroke-width: 1.0;"/><line style="stroke: #383838; stroke-width: 1.0;" x1="988.5" x2="1208" y1="227.0938" y2="227.0938"/><text fill="#000000" font-family="DejaVu Sans" font-size="13" lengthAdjust="spacingAndGlyphs" textLength="93" x="995.5" y="222.0278">buttonPressed</text><polygon fill="#383838" points="1433.5,252.2266,1443.5,256.2266,1433.5,260.2266,1437.5,256.2266" style="stroke: #383838; stroke-width: 1.0;"/><line style="stroke: #383838; stroke-width: 1.0;" x1="1214" x2="1439.5" y1="256.2266" y2="256.2266"/><text fill="#000000" font-family="DejaVu Sans" font-size="13" lengthAdjust="spacingAndGlyphs" textLength="93" x="1221" y="251.1606">buttonPressed</text><polygon fill="#383838" points="155,281.3594,145,285.3594,155,289.3594,151,285.3594" style="stroke: #383838; stroke-width: 1.0;"/><line style="stroke: #383838; stroke-width: 1.0;" x1="149" x2="1444.5" y1="285.3594" y2="285.3594"/><text fill="#000000" font-family="DejaVu Sans" font-size="13" lengthAdjust="spacingAndGlyphs" textLength="93" x="161" y="280.2935">buttonPressed</text><polygon fill="#ECECEC" points="689,298.3594,744,298.3594,754,309.3594,744,321.3594,689,321.3594,679,309.3594,689,298.3594" style="stroke: #383838; stroke-width: 1.0;"/><text fill="#000000" font-family="DejaVu Sans" font-size="13" lengthAdjust="spacingAndGlyphs" textLength="51" x="691" y="314.4263">Pressed</text><polygon fill="#383838" points="1669.5,343.625,1679.5,347.625,1669.5,351.625,1673.5,347.625" style="stroke: #383838; stroke-width: 1.0;"/><line style="stroke: #383838; stroke-width: 1.0;" x1="144" x2="1675.5" y1="347.625" y2="347.625"/><text fill="#000000" font-family="DejaVu Sans" font-size="13" lengthAdjust="spacingAndGlyphs" textLength="45" x="151" y="342.5591">lightOn</text><polygon fill="#383838" points="1883,372.7578,1893,376.7578,1883,380.7578,1887,376.7578" style="stroke: #383838; stroke-width: 1.0;"/><line style="stroke: #383838; stroke-width: 1.0;" x1="1681.5" x2="1889" y1="376.7578" y2="376.7578"/><text fill="#000000" font-family="DejaVu Sans" font-size="13" lengthAdjust="spacingAndGlyphs" textLength="45" x="1688.5" y="371.6919">lightOn</text><polygon fill="#383838" points="434,401.8906,424,405.8906,434,409.8906,430,405.8906" style="stroke: #383838; stroke-width: 1.0;"/><line style="stroke: #383838; stroke-width: 1.0;" x1="428" x2="1894" y1="405.8906" y2="405.8906"/><text fill="#000000" font-family="DejaVu Sans" font-size="13" lengthAdjust="spacingAndGlyphs" textLength="45" x="440" y="400.8247">lightOn</text><polygon fill="#ECECEC" points="121,418.8906,167,418.8906,177,429.8906,167,441.8906,121,441.8906,111,429.8906,121,418.8906" style="stroke: #383838; stroke-width: 1.0;"/><text fill="#000000" font-family="DejaVu Sans" font-size="13" lengthAdjust="spacingAndGlyphs" textLength="42" x="123" y="434.9575">RedOn</text><polygon fill="#ECECEC" points="412,452.0234,434,452.0234,444,463.0234,434,475.0234,412,475.0234,402,463.0234,412,452.0234" style="stroke: #383838; stroke-width: 1.0;"/><text fill="#000000" font-family="DejaVu Sans" font-size="13" lengthAdjust="spacingAndGlyphs" textLength="18" x="414" y="468.0903">On</text><polygon fill="#383838" points="976.5,497.2891,986.5,501.2891,976.5,505.2891,980.5,501.2891" style="stroke: #383838; stroke-width: 1.0;"/><line style="stroke: #383838; stroke-width: 1.0;" x1="717" x2="982.5" y1="501.2891" y2="501.2891"/><text fill="#000000" font-family="DejaVu Sans" font-size="13" lengthAdjust="spacingAndGlyphs" textLength="100" x="724" y="496.2231">buttonReleased</text><polygon fill="#383838" points="1202,526.4219,1212,530.4219,1202,534.4219,1206,530.4219" style="stroke: #383838; stroke-width: 1.0;"/><line style="stroke: #383838; stroke-width: 1.0;" x1="988.5" x2="1208" y1="530.4219" y2="530.4219"/><text fill="#000000" font-family="DejaVu Sans" font-size="13" lengthAdjust="spacingAndGlyphs" textLength="100" x="995.5" y="525.356">buttonReleased</text><polygon fill="#383838" points="1433.5,555.5547,1443.5,559.5547,1433.5,563.5547,1437.5,559.5547" style="stroke: #383838; stroke-width: 1.0;"/><line style="stroke: #383838; stroke-width: 1.0;" x1="1214" x2="1439.5" y1="559.5547" y2="559.5547"/><text fill="#000000" font-family="DejaVu Sans" font-size="13" lengthAdjust="spacingAndGlyphs" textLength="100" x="1221" y="554.4888">buttonReleased</text><polygon fill="#383838" points="155,584.6875,145,588.6875,155,592.6875,151,588.6875" style="stroke: #383838; stroke-width: 1.0;"/><line style="stroke: #383838; stroke-width: 1.0;" x1="149" x2="1444.5" y1="588.6875" y2="588.6875"/><text fill="#000000" font-family="DejaVu Sans" font-size="13" lengthAdjust="spacingAndGlyphs" textLength="100" x="161" y="583.6216">buttonReleased</text><polygon fill="#ECECEC" points="686,601.6875,748,601.6875,758,612.6875,748,624.6875,686,624.6875,676,612.6875,686,601.6875" style="stroke: #383838; stroke-width: 1.0;"/><text fill="#000000" font-family="DejaVu Sans" font-size="13" lengthAdjust="spacingAndGlyphs" textLength="58" x="688" y="617.7544">Released</text><polygon fill="#383838" points="1669.5,646.9531,1679.5,650.9531,1669.5,654.9531,1673.5,650.9531" style="stroke: #383838; stroke-width: 1.0;"/><line style="stroke: #383838; stroke-width: 1.0;" x1="144" x2="1675.5" y1="650.9531" y2="650.9531"/><text fill="#000000" font-family="DejaVu Sans" font-size="13" lengthAdjust="spacingAndGlyphs" textLength="45" x="151" y="645.8872">lightOff</text><polygon fill="#383838" points="1883,676.0859,1893,680.0859,1883,684.0859,1887,680.0859" style="stroke: #383838; stroke-width: 1.0;"/><line style="stroke: #383838; stroke-width: 1.0;" x1="1681.5" x2="1889" y1="680.0859" y2="680.0859"/><text fill="#000000" font-family="DejaVu Sans" font-size="13" lengthAdjust="spacingAndGlyphs" textLength="45" x="1688.5" y="675.02">lightOff</text><polygon fill="#383838" points="434,705.2188,424,709.2188,434,713.2188,430,709.2188" style="stroke: #383838; stroke-width: 1.0;"/><line style="stroke: #383838; stroke-width: 1.0;" x1="428" x2="1894" y1="709.2188" y2="709.2188"/><text fill="#000000" font-family="DejaVu Sans" font-size="13" lengthAdjust="spacingAndGlyphs" textLength="45" x="440" y="704.1528">lightOff</text><polygon fill="#ECECEC" points="131,722.2188,157,722.2188,167,733.2188,157,745.2188,131,745.2188,121,733.2188,131,722.2188" style="stroke: #383838; stroke-width: 1.0;"/><text fill="#000000" font-family="DejaVu Sans" font-size="13" lengthAdjust="spacingAndGlyphs" textLength="22" x="133" y="738.2856">Idle</text><polygon fill="#ECECEC" points="412,755.3516,434,755.3516,444,766.3516,434,778.3516,412,778.3516,402,766.3516,412,755.3516" style="stroke: #383838; stroke-width: 1.0;"/><text fill="#000000" font-family="DejaVu Sans" font-size="13" lengthAdjust="spacingAndGlyphs" textLength="18" x="414" y="771.4185">Off</text><polygon fill="#383838" points="976.5,800.6172,986.5,804.6172,976.5,808.6172,980.5,804.6172" style="stroke: #383838; stroke-width: 1.0;"/><line style="stroke: #383838; stroke-width: 1.0;" x1="717" x2="982.5" y1="804.6172" y2="804.6172"/><text fill="#000000" font-family="DejaVu Sans" font-size="13" lengthAdjust="spacingAndGlyphs" textLength="93" x="724" y="799.5513">buttonPressed</text><polygon fill="#383838" points="1202,829.75,1212,833.75,1202,837.75,1206,833.75" style="stroke: #383838; stroke-width: 1.0;"/><line style="stroke: #383838; stroke-width: 1.0;" x1="988.5" x2="1208" y1="833.75" y2="833.75"/><text fill="#000000" font-family="DejaVu Sans" font-size="13" lengthAdjust="spacingAndGlyphs" textLength="93" x="995.5" y="828.6841">buttonPressed</text><polygon fill="#383838" points="1433.5,858.8828,1443.5,862.8828,1433.5,866.8828,1437.5,862.8828" style="stroke: #383838; stroke-width: 1.0;"/><line style="stroke: #383838; stroke-width: 1.0;" x1="1214" x2="1439.5" y1="862.8828" y2="862.8828"/><text fill="#000000" font-family="DejaVu Sans" font-size="13" lengthAdjust="spacingAndGlyphs" textLength="93" x="1221" y="857.8169">buttonPressed</text><polygon fill="#383838" points="155,888.0156,145,892.0156,155,896.0156,151,892.0156" style="stroke: #383838; stroke-width: 1.0;"/><line style="stroke: #383838; stroke-width: 1.0;" x1="149" x2="1444.5" y1="892.0156" y2="892.0156"/><text fill="#000000" font-family="DejaVu Sans" font-size="13" lengthAdjust="spacingAndGlyphs" textLength="93" x="161" y="886.9497">buttonPressed</text><polygon fill="#ECECEC" points="689,905.0156,744,905.0156,754,916.0156,744,928.0156,689,928.0156,679,916.0156,689,905.0156" style="stroke: #383838; stroke-width: 1.0;"/><text fill="#000000" font-family="DejaVu Sans" font-size="13" lengthAdjust="spacingAndGlyphs" textLength="51" x="691" y="921.0825">Pressed</text><polygon fill="#383838" points="1669.5,950.2813,1679.5,954.2813,1669.5,958.2813,1673.5,954.2813" style="stroke: #383838; stroke-width: 1.0;"/><line style="stroke: #383838; stroke-width: 1.0;" x1="144" x2="1675.5" y1="954.2813" y2="954.2813"/><text fill="#000000" font-family="DejaVu Sans" font-size="13" lengthAdjust="spacingAndGlyphs" textLength="45" x="151" y="949.2153">lightOn</text><polygon fill="#383838" points="1883,979.4141,1893,983.4141,1883,987.4141,1887,983.4141" style="stroke: #383838; stroke-width: 1.0;"/><line style="stroke: #383838; stroke-width: 1.0;" x1="1681.5" x2="1889" y1="983.4141" y2="983.4141"/><text fill="#000000" font-family="DejaVu Sans" font-size="13" lengthAdjust="spacingAndGlyphs" textLength="45" x="1688.5" y="978.3481">lightOn</text><polygon fill="#383838" points="434,1008.5469,424,1012.5469,434,1016.5469,430,1012.5469" style="stroke: #383838; stroke-width: 1.0;"/><line style="stroke: #383838; stroke-width: 1.0;" x1="428" x2="1894" y1="1012.5469" y2="1012.5469"/><text fill="#000000" font-family="DejaVu Sans" font-size="13" lengthAdjust="spacingAndGlyphs" textLength="45" x="440" y="1007.481">lightOn</text><polygon fill="#ECECEC" points="121,1025.5469,167,1025.5469,177,1036.5469,167,1048.5469,121,1048.5469,111,1036.5469,121,1025.5469" style="stroke: #383838; stroke-width: 1.0;"/><text fill="#000000" font-family="DejaVu Sans" font-size="13" lengthAdjust="spacingAndGlyphs" textLength="42" x="123" y="1041.6138">RedOn</text><polygon fill="#ECECEC" points="412,1058.6797,434,1058.6797,444,1069.6797,434,1081.6797,412,1081.6797,402,1069.6797,412,1058.6797" style="stroke: #383838; stroke-width: 1.0;"/><text fill="#000000" font-family="DejaVu Sans" font-size="13" lengthAdjust="spacingAndGlyphs" textLength="18" x="414" y="1074.7466">On</text><polygon fill="#383838" points="976.5,1103.9453,986.5,1107.9453,976.5,1111.9453,980.5,1107.9453" style="stroke: #383838; stroke-width: 1.0;"/><line style="stroke: #383838; stroke-width: 1.0;" x1="717" x2="982.5" y1="1107.9453" y2="1107.9453"/><text fill="#000000" font-family="DejaVu Sans" font-size="13" lengthAdjust="spacingAndGlyphs" textLength="100" x="724" y="1102.8794">buttonReleased</text><polygon fill="#383838" points="1202,1133.0781,1212,1137.0781,1202,1141.0781,1206,1137.0781" style="stroke: #383838; stroke-width: 1.0;"/><line style="stroke: #383838; stroke-width: 1.0;" x1="988.5" x2="1208" y1="1137.0781" y2="1137.0781"/><text fill="#000000" font-family="DejaVu Sans" font-size="13" lengthAdjust="spacingAndGlyphs" textLength="100" x="995.5" y="1132.0122">buttonReleased</text><polygon fill="#383838" points="1433.5,1162.2109,1443.5,1166.2109,1433.5,1170.2109,1437.5,1166.2109" style="stroke: #383838; stroke-width: 1.0;"/><line style="stroke: #383838; stroke-width: 1.0;" x1="1214" x2="1439.5" y1="1166.2109" y2="1166.2109"/><text fill="#000000" font-family="DejaVu Sans" font-size="13" lengthAdjust="spacingAndGlyphs" textLength="100" x="1221" y="1161.145">buttonReleased</text><polygon fill="#383838" points="155,1191.3438,145,1195.3438,155,1199.3438,151,1195.3438" style="stroke: #383838; stroke-width: 1.0;"/><line style="stroke: #383838; stroke-width: 1.0;" x1="149" x2="1444.5" y1="1195.3438" y2="1195.3438"/><text fill="#000000" font-family="DejaVu Sans" font-size="13" lengthAdjust="spacingAndGlyphs" textLength="100" x="161" y="1190.2778">buttonReleased</text><polygon fill="#ECECEC" points="686,1208.3438,748,1208.3438,758,1219.3438,748,1231.3438,686,1231.3438,676,1219.3438,686,1208.3438" style="stroke: #383838; stroke-width: 1.0;"/><text fill="#000000" font-family="DejaVu Sans" font-size="13" lengthAdjust="spacingAndGlyphs" textLength="58" x="688" y="1224.4106">Released</text><polygon fill="#383838" points="1669.5,1253.6094,1679.5,1257.6094,1669.5,1261.6094,1673.5,1257.6094" style="stroke: #383838; stroke-width: 1.0;"/><line style="stroke: #383838; stroke-width: 1.0;" x1="144" x2="1675.5" y1="1257.6094" y2="1257.6094"/><text fill="#000000" font-family="DejaVu Sans" font-size="13" lengthAdjust="spacingAndGlyphs" textLength="45" x="151" y="1252.5435">lightOff</text><polygon fill="#383838" points="1883,1282.7422,1893,1286.7422,1883,1290.7422,1887,1286.7422" style="stroke: #383838; stroke-width: 1.0;"/><line style="stroke: #383838; stroke-width: 1.0;" x1="1681.5" x2="1889" y1="1286.7422" y2="1286.7422"/><text fill="#000000" font-family="DejaVu Sans" font-size="13" lengthAdjust="spacingAndGlyphs" textLength="45" x="1688.5" y="1281.6763">lightOff</text><polygon fill="#383838" points="434,1311.875,424,1315.875,434,1319.875,430,1315.875" style="stroke: #383838; stroke-width: 1.0;"/><line style="stroke: #383838; stroke-width: 1.0;" x1="428" x2="1894" y1="1315.875" y2="1315.875"/><text fill="#000000" font-family="DejaVu Sans" font-size="13" lengthAdjust="spacingAndGlyphs" textLength="45" x="440" y="1310.8091">lightOff</text><polygon fill="#ECECEC" points="131,1328.875,157,1328.875,167,1339.875,157,1351.875,131,1351.875,121,1339.875,131,1328.875" style="stroke: #383838; stroke-width: 1.0;"/><text fill="#000000" font-family="DejaVu Sans" font-size="13" lengthAdjust="spacingAndGlyphs" textLength="22" x="133" y="1344.9419">Idle</text><polygon fill="#ECECEC" points="412,1362.0078,434,1362.0078,444,1373.0078,434,1385.0078,412,1385.0078,402,1373.0078,412,1362.0078" style="stroke: #383838; stroke-width: 1.0;"/><text fill="#000000" font-family="DejaVu Sans" font-size="13" lengthAdjust="spacingAndGlyphs" textLength="18" x="414" y="1378.0747">Off</text><!--
@startuml
skinparam shadowing false
skinparam defaultFontName DejaVu Sans
skinparam monochrome true
participant "<u>instMain_system_controller:Controller</u>" as instMain_system_controller
participant "<u>instMain_env_envLed:SimulatedLight</u>" as instMain_env_envLed
participant "<u>instMain_env_envButton:SimulatedButton</u>" as instMain_env_envButton
/ hnote over instMain_system_controller : Idle
/ hnote over instMain_env_envLed : Off
/ hnote over instMain_env_envButton : Released
hnote over instMain_system_controller : Idle
hnote over instMain_env_envLed : Off
hnote over instMain_env_envButton : Released
instMain_env_envButton -> instMain_env_envButton_peer : buttonPressed
instMain_env_envButton_peer -> instMain_env_envButtonPort : buttonPressed
instMain_env_envButtonPort -> instMain_system_sysButtonPort : buttonPressed
instMain_system_sysButtonPort -> instMain_system_controller : buttonPressed
hnote over instMain_env_envButton : Pressed
instMain_system_controller -> instMain_system_sysLightPort : lightOn
instMain_system_sysLightPort -> instMain_env_envLedPort : lightOn
instMain_env_envLedPort -> instMain_env_envLed : lightOn
hnote over instMain_system_controller : RedOn
hnote over instMain_env_envLed : On
instMain_env_envButton -> instMain_env_envButton_peer : buttonReleased
instMain_env_envButton_peer -> instMain_env_envButtonPort : buttonReleased
instMain_env_envButtonPort -> instMain_system_sysButtonPort : buttonReleased
instMain_system_sysButtonPort -> instMain_system_controller : buttonReleased
hnote over instMain_env_envButton : Released
instMain_system_controller -> instMain_system_sysLightPort : lightOff
instMain_system_sysLightPort -> instMain_env_envLedPort : lightOff
instMain_env_envLedPort -> instMain_env_envLed : lightOff
hnote over instMain_system_controller : Idle
hnote over instMain_env_envLed : Off
instMain_env_envButton -> instMain_env_envButton_peer : buttonPressed
instMain_env_envButton_peer -> instMain_env_envButtonPort : buttonPressed
instMain_env_envButtonPort -> instMain_system_sysButtonPort : buttonPressed
instMain_system_sysButtonPort -> instMain_system_controller : buttonPressed
hnote over instMain_env_envButton : Pressed
instMain_system_controller -> instMain_system_sysLightPort : lightOn
instMain_system_sysLightPort -> instMain_env_envLedPort : lightOn
instMain_env_envLedPort -> instMain_env_envLed : lightOn
hnote over instMain_system_controller : RedOn
hnote over instMain_env_envLed : On
instMain_env_envButton -> instMain_env_envButton_peer : buttonReleased
instMain_env_envButton_peer -> instMain_env_envButtonPort : buttonReleased
instMain_env_envButtonPort -> instMain_system_sysButtonPort : buttonReleased
instMain_system_sysButtonPort -> instMain_system_controller : buttonReleased
hnote over instMain_env_envButton : Released
instMain_system_controller -> instMain_system_sysLightPort : lightOff
instMain_system_sysLightPort -> instMain_env_envLedPort : lightOff
instMain_env_envLedPort -> instMain_env_envLed : lightOff
hnote over instMain_system_controller : Idle
hnote over instMain_env_envLed : Off
@enduml

PlantUML version 1.2018.11(Sat Sep 22 18:43:53 CEST 2018)
(GPL source distribution)
Java Runtime: OpenJDK Runtime Environment
JVM: OpenJDK 64-Bit Server VM
Java Version: 1.8.0_212-8u212-b01-1~deb9u1-b01
Operating System: Linux
OS Version: 4.9.0-8-amd64
Default Encoding: UTF-8
Language: fr
Country: FR
--></g></svg>